# xmcd
#
# Track frame offsets:
#	182
#	19452
#	36757
#	54012
#	67702
#	83535
#	101052
#	118432
#	133512
#	147907
#	162752
#	179567
#	195687
#	211040
#
# Disc length: 3126 seconds
#
# Revision: 11
# Processed by: cddbd v1.5.2PL0 Copyright (c) Steve Scherf et al.
# Submitted via: EasyCDDAExtractor 16.0.6.1
#
DISCID=bc0c340e
DTITLE=UB40 - The Best of UB40, Volume 1
DYEAR=1995
DGENRE=
TTITLE0=UB40 - Food for Thought
TTITLE1=UB40 - King
TTITLE2=UB40 - My Way of Thinking
TTITLE3=UB40 - The Earth Dies Screaming
TTITLE4=UB40 - Dream a Lie
TTITLE5=UB40 - Don't Let It Pass You By
TTITLE6=UB40 - Don't Slow Down
TTITLE7=UB40 - One in Ten
TTITLE8=UB40 - Red Red Wine (7" version)
TTITLE9=UB40 - Please Don't Make Me Cry
TTITLE10=UB40 - Many Rivers to Cross
TTITLE11=UB40 - Cherry Oh Baby
TTITLE12=UB40 - If It Happens Again
TTITLE13=UB40 feat. Chrissie Hynde - I Got You Babe
EXTD=(CD TEXT-1983-10-40:02-TAO]\n\nTracks: 1. Cherry Oh Baby\n             2.
EXTD=Keep On Moving\n             3. Please Don't Make Me Cry\n             4
EXTD=Sweet Sensation\n             5. Johnny Too Bad\n             6. Red Re
EXTD=d Wine\n             7. Guilty\n             8. She Caught The Train\n   
EXTD=9. Version Girl\n           10. Many Rivers To Cross
EXTT0=
EXTT1=
EXTT2=
EXTT3=
EXTT4=
EXTT5=
EXTT6=
EXTT7=
EXTT8=
EXTT9=
EXTT10=
EXTT11=
EXTT12=
EXTT13=
PLAYORDER=
